<?xml version="1.0" encoding="utf-8"?>
<!-- Generator: Adobe Adobe Illustrator 24.2.0, SVG Export Plug-In . SVG Version: 6.00 Build 0)  -->
<svg version="1.1" id="Layer_1" xmlns="http://www.w3.org/2000/svg" xmlns:xlink="http://www.w3.org/1999/xlink" x="0px" y="0px"
	 width="720px" height="720px" viewBox="0 0 720 720" style="enable-background:new 0 0 720 720;" xml:space="preserve">
<style type="text/css">
	.st0{display:none;fill:#2B2524;}
	.st1{display:none;}
	.st2{display:inline;}
	.st3{fill:#CC2326;}
	.st4{fill:#B81C0D;}
	.st5{display:inline;fill:none;stroke:#A1260C;stroke-miterlimit:10;}
</style>
<rect class="st0" width="720" height="720"/>
<g>
	<g>
		<path class="st3" d="M644.92,212.61c39.2-44.52,5.05-108.87-41.3-103.71c-41.63,4.64-50.84,45.12-37.61,60.03
			c5.55,6.26,17.84,3.45,13.79-8.59c-6.18-18.37,13.12-30.69,27.18-29.18c34.11,3.65,39.67,65.8-7.68,79.29
			C505.66,237.13,482,346.48,474.19,403.4c-1.8,13.09-14.25,54.86-38.8,57.52c-47.49,5.14-44.56-86.37,2.76-186.32
			c36.88-77.88,65.56-195.37,11.94-233.42c-25.9-18.38-65.15-28.98-126.56,32.98c-46.04,46.45-110.71,9.01-125.38-12.23
			c-4.86-7.04-18.33-5.41-16.83,7.8c9.33,81.81-33.1,100.55-68.15,112.58c-10.91,3.75-9.83,20.07,2.69,21.41
			c58.56,6.74,78.96,45.61,55.92,146.6c-36.84,161.47,69.38,266.21,62.6,286.8c-1.97,6-57.2-17.23-97.63-53.43
			C101,551.67,81.45,526.21,66.21,481.58c-10.14-29.7-13.41-98.85,20.24-154.14c7.49-12.3-8.56-19.8-16.33-9.2
			c-21.99,30-32.69,73.72-31.99,100.33c0.44,16.71-46.3-176.05,81.14-304.86c12.71-12.84-1.85-27.71-12.79-16.65
			C-17.17,222.04,0.41,374.42,10.64,423.23C53.41,627.4,223.48,689.1,278.71,692.75c51.58,3.42,67.95-20.64,7.74-95.31
			c-7.67-9.51-100-123.07-78.29-231.43c21.61-107.83,114.02-111.9,138.08-104.24c10.39,3.31,20.2-7.51,10.06-17.56
			c-47.59-47.16-15.3-104.78,4.97-121.13c16.68-13.45,43.73-24.98,60.35,4.95c24.17,43.54-7.05,127.43-31.53,179.88
			c-24.48,52.45-40.02,115.69-15.88,186.71c14.37,42.28,17.97,79.86,1.21,99.76c-7.84,9.3-0.2,18.69,7.98,16.82
			c56.8-12.96,85.72,23.51,96.36,42.23c5.23,9.2,19.05,7.09,18.31-4.51c-4.11-64.7,50.38-82.32,64.74-82.72
			c10.67-0.29,15.09-10.68,4.17-18.06c-99.04-66.88-56.56-212.34-30.11-249.3c43.75-61.13,119.74-72.92,142.02,20.63
			c23.01,96.57-34.99,159.86-58.11,155.27c-44.27-8.78-33.07-69.19-14.14-98.12c6.16-9.41-7.24-20.77-17.16-9.19
			c-12.87,15.03-52.94,102.87,10.71,141.29c52.36,31.6,106.04-42.14,114.47-120.76C730.47,240.35,643.69,214.01,644.92,212.61z
			 M283.07,185.12c-2.2,20.55-20.64,35.42-41.19,33.21c-20.55-2.2-35.42-20.64-33.21-41.19c2.2-20.55,20.64-35.42,41.19-33.21
			S285.27,164.57,283.07,185.12z M485.53,553.69c-1.52,14.23-14.3,24.53-28.52,23s-24.53-14.3-23-28.52
			c1.52-14.23,14.3-24.53,28.52-23C476.75,526.69,487.05,539.46,485.53,553.69z"/>
	</g>
</g>
</svg>
